<svg xmlns="http://www.w3.org/2000/svg" width="610.021" height="77.448" viewBox="0 0 610.021 77.448">
  <g id="Group_7523" data-name="Group 7523" transform="translate(-739.209 -1406)">
    <rect id="Rectangle_3881" data-name="Rectangle 3881" width="339.578" height="77.448" rx="7" transform="translate(1009.653 1406)" fill="#d6001c"/>
    <path id="Path_17190" data-name="Path 17190" d="M33.072,45.4v8.958H9.706V66.3H28.519v8.959H9.706v22.4H0V45.4Z" transform="translate(1020.039 1373.494)" fill="#fff"/>
    <path id="Path_17191" data-name="Path 17191" d="M44.193,56.678c12.095,0,19.111,8.511,19.111,19.411S56.288,95.5,44.193,95.5s-19.111-8.51-19.111-19.41S32.1,56.678,44.193,56.678m0,30.907c5.973,0,9.407-5.3,9.407-11.5s-3.434-11.5-9.407-11.5-9.407,5.3-9.407,11.5,3.434,11.5,9.407,11.5" transform="translate(1026.167 1376.249)" fill="#fff"/>
    <path id="Path_17192" data-name="Path 17192" d="M80.872,94.784V88.738c-2.764,3.956-6.794,6.643-11.647,6.643-6.719,0-11.571-3.808-11.571-11.348V57.159h9.256V81.272c0,4.478,2.24,6.2,5.375,6.2,4.479,0,8.586-5.374,8.586-15.3v-15h9.256V94.784Z" transform="translate(1034.124 1376.367)" fill="#fff"/>
    <path id="Path_17193" data-name="Path 17193" d="M138.418,67.13c1.195-6.2,6.645-10.452,14.333-10.452,8.958,0,15.827,3.733,15.827,15.752V94.9h-7.615l-.971-4.778A14.025,14.025,0,0,1,148.422,95.5C142,95.5,137,91.542,137,84.077s6.569-12.32,16.05-12.32h6.271V70.116c0-4.181-3.136-5.525-6.57-5.525-2.612,0-5.3.821-6.494,4.33Zm12.168,20.455c4.255,0,8.735-2.912,8.735-7.763v-.748h-6.2c-3.957,0-6.421,1.493-6.421,4.854a3.625,3.625,0,0,0,3.882,3.657" transform="translate(1053.507 1376.249)" fill="#fff"/>
    <rect id="Rectangle_3882" data-name="Rectangle 3882" width="9.256" height="37.625" transform="translate(1251.58 1433.527)" fill="#fff"/>
    <path id="Path_17194" data-name="Path 17194" d="M214.872,56.678c12.095,0,19.111,8.511,19.111,19.411S226.967,95.5,214.872,95.5s-19.111-8.51-19.111-19.41,7.017-19.411,19.111-19.411m0,30.907c5.973,0,9.407-5.3,9.407-11.5s-3.434-11.5-9.407-11.5-9.407,5.3-9.407,11.5,3.434,11.5,9.407,11.5" transform="translate(1067.863 1376.249)" fill="#fff"/>
    <path id="Path_17195" data-name="Path 17195" d="M237.642,57.276v6.046c2.762-3.956,6.794-6.643,11.647-6.643,6.719,0,11.571,3.806,11.571,11.347V94.9H251.6V70.788c0-4.479-2.24-6.2-5.375-6.2-4.479,0-8.586,5.375-8.586,15.3v15h-9.256V57.276Z" transform="translate(1075.833 1376.25)" fill="#fff"/>
    <path id="Path_17196" data-name="Path 17196" d="M131.417,45.47V63.448a12.309,12.309,0,0,0-9.109-4.032c-11.347,0-17.169,7.839-17.169,19.411s5.822,19.41,17.169,19.41c4.63,0,8.064-2.538,9.109-4.479V97.64h9.256V45.47Zm-7.839,44.853c-4.853,0-8.735-4.03-8.735-11.5s3.882-11.5,8.735-11.5,8.66,4.032,8.66,11.5-3.809,11.5-8.66,11.5" transform="translate(1045.724 1373.512)" fill="#fff"/>
    <path id="Path_17197" data-name="Path 17197" d="M187.631,89.745l-.342-1.178a7.086,7.086,0,0,1-3.584.9c-3.134,0-4.927-1.493-4.927-6.122V67.066h9.929V59.154h-9.929V49h-9.256V59.154H163.7v7.912h5.823V83.49c0,9.332,5.3,13.886,13.812,13.886a14.209,14.209,0,0,0,6.122-1.344Z" transform="translate(1060.03 1374.373)" fill="#fff"/>
    <path id="Path_17198" data-name="Path 17198" d="M94.747,56.679a12.994,12.994,0,0,0-7.995,2.8v7.647a6.548,6.548,0,0,1,4.934-2.535c3.136,0,5.374,1.717,5.374,6.2V94.9h9.258V68.026c0-7.539-4.853-11.347-11.571-11.347" transform="translate(1041.232 1376.25)" fill="#fff"/>
    <g id="Group_7521" data-name="Group 7521" transform="translate(739.209 1417.697)">
      <g id="Group_7520" data-name="Group 7520" transform="translate(31.828 0)">
        <path id="Path_17153" data-name="Path 17153" d="M46.584,20.229a21.269,21.269,0,0,1,5.123-7.056,14.953,14.953,0,0,0-5.747-1.412c-4.254,0-8.435,2.314-11.124,6.718V12.357H25.579V49.984h9.256V36.62c0-12.169,4.7-16.573,10.079-16.573a7.891,7.891,0,0,1,1.67.182" transform="translate(-25.579 2.873)" fill="#212322"/>
        <path id="Path_17154" data-name="Path 17154" d="M78.888,34.156h-25.9c.224,4.181,3.136,8.511,8.884,8.511,4.256,0,6.867-1.941,9.107-5.823l7.466,2.762c-2.912,6.645-7.988,10.975-17.1,10.975-12.916,0-18.066-10.527-18.066-19.411s5.15-19.41,18.066-19.41c12.541,0,17.543,10.377,17.543,18.589ZM53.207,26.84h16.2c-.822-3.733-3.136-7.167-8.063-7.167-4.7,0-7.466,3.584-8.138,7.167" transform="translate(-21.255 2.873)" fill="#212322"/>
        <path id="Path_17155" data-name="Path 17155" d="M109.729,34.156H83.823c.224,4.181,3.136,8.511,8.884,8.511,4.255,0,6.867-1.941,9.107-5.823l7.466,2.762c-2.912,6.645-7.988,10.975-17.1,10.975-12.916,0-18.066-10.527-18.066-19.411s5.15-19.41,18.066-19.41c12.541,0,17.545,10.377,17.545,18.589ZM84.047,26.84h16.2c-.822-3.733-3.136-7.167-8.063-7.167-4.7,0-7.466,3.584-8.138,7.167" transform="translate(-13.721 2.873)" fill="#212322"/>
        <path id="Path_17156" data-name="Path 17156" d="M122.308,14.633a12.309,12.309,0,0,1,9.109,4.032V0h9.256V52.856h-9.256V48.974c-1.045,1.941-4.479,4.479-9.109,4.479-11.347,0-17.169-7.838-17.169-19.41s5.822-19.411,17.169-19.411m1.27,30.907c4.851,0,8.66-4.03,8.66-11.5s-3.809-11.5-8.66-11.5-8.735,4.032-8.735,11.5,3.882,11.5,8.735,11.5" transform="translate(-6.143)" fill="#212322"/>
        <path id="Path_17157" data-name="Path 17157" d="M155.041,11.76c12.095,0,19.111,8.511,19.111,19.411s-7.017,19.41-19.111,19.41-19.111-8.51-19.111-19.41,7.017-19.411,19.111-19.411m0,30.907c5.973,0,9.407-5.3,9.407-11.5s-3.434-11.5-9.407-11.5-9.407,5.3-9.407,11.5,3.434,11.5,9.407,11.5" transform="translate(1.379 2.873)" fill="#212322"/>
        <path id="Path_17158" data-name="Path 17158" d="M190.4,49.984V24.9c0-3.808-1.867-5.226-4.629-5.226-4.554,0-8.138,5.3-8.138,16.5V49.984h-9.256V12.359h9.256V18.4c2.762-4.181,5.973-6.645,10.825-6.645a10.4,10.4,0,0,1,10.525,7.764c2.689-4.853,6.87-7.764,11.5-7.764,7.017,0,11.2,4.33,11.2,11.572V49.984h-9.258V24.9c0-3.808-1.866-5.226-4.629-5.226-4.478,0-8.138,5.077-8.138,15.677V49.984Z" transform="translate(9.307 2.873)" fill="#212322"/>
      </g>
      <path id="Path_17189" data-name="Path 17189" d="M0,.481V52.739H9.7v-22.4H28.518v-8.96H9.7V9.438H33.072V.481Z" transform="translate(0 0.117)" fill="#212322"/>
    </g>
  </g>
</svg>
