<svg xmlns="http://www.w3.org/2000/svg" width="70" height="70" viewBox="0 0 70 70">
  <g id="Group_7768" data-name="Group 7768" transform="translate(-715 -4540)">
    <circle id="Ellipse_206" data-name="Ellipse 206" cx="35" cy="35" r="35" transform="translate(715 4540)" fill="#6d3eb6"/>
    <g id="Global_Fund_to_End_Modern_Slavery" data-name="Global Fund to End Modern Slavery" transform="translate(722.349 4543.209)">
      <path id="Path_343" data-name="Path 343" d="M354.7,253.236a2.376,2.376,0,0,1,1.932.934l-.5.306a1.838,1.838,0,0,0-1.442-.689,2.031,2.031,0,0,0,0,4.054,1.967,1.967,0,0,0,1.341-.538v-1.015h-1.722v-.551h2.329v1.8a2.593,2.593,0,1,1-1.956-4.3" transform="translate(-343.406 -244.442)" fill="#fff"/>
      <path id="Path_344" data-name="Path 344" d="M37.21,23.06h.62v4.429h2.315v.555H37.21Z" transform="translate(-22.227 -14.184)" fill="#fff"/>
      <path id="Path_345" data-name="Path 345" d="M378.274,253.8a1.844,1.844,0,1,0,1.362.607,1.842,1.842,0,0,0-1.362-.607m0-.551a2.582,2.582,0,1,1-2.471,2.582,2.432,2.432,0,0,1,2.471-2.582" transform="translate(-356.904 -244.448)" fill="#fff"/>
      <path id="Path_346" data-name="Path 346" d="M393.008,257.859a.822.822,0,0,0,.925-.861.861.861,0,0,0-.925-.861h-1.523v1.722Zm-.03-2.268a.806.806,0,1,0,0-1.6h-1.493v1.607h1.493Zm-2.113-2.152h2.212a1.257,1.257,0,0,1,1.4,1.291,1.132,1.132,0,0,1-.861,1.141,1.244,1.244,0,0,1,.968,1.227,1.291,1.291,0,0,1-1.442,1.341h-2.268V253.43Z" transform="translate(-365.486 -244.554)" fill="#fff"/>
      <path id="Path_347" data-name="Path 347" d="M403.4,256.763h2.152l-1.076-2.772Zm2.347.551h-2.529l-.43,1.106H402.1l2-4.98h.771l2,4.974h-.69Z" transform="translate(-371.886 -244.56)" fill="#fff"/>
      <path id="Path_348" data-name="Path 348" d="M86.48,23.06h.62v4.429h2.315v.555H86.48Z" transform="translate(-50.292 -14.184)" fill="#fff"/>
      <path id="Path_349" data-name="Path 349" d="M22.88,41.99h3.263v.551H23.5v1.606h2.591V44.7H23.5v2.267h-.62Z" transform="translate(-14.065 -24.967)" fill="#fff"/>
      <path id="Path_350" data-name="Path 350" d="M363.55,272.36h.624v3.013a1.413,1.413,0,1,0,2.823,0V272.36h.62v3.04a2.031,2.031,0,0,1-4.063.008V272.36Z" transform="translate(-349.928 -255.337)" fill="#fff"/>
      <path id="Path_351" data-name="Path 351" d="M48.14,42.954v4.015h-.62V41.99h.633l2.871,3.934V41.99h.621v4.979h-.6Z" transform="translate(-28.1 -24.967)" fill="#fff"/>
      <path id="Path_352" data-name="Path 352" d="M392.282,276.786a1.937,1.937,0,1,0,0-3.874h-1.1v3.873h1.085Zm-1.722-4.429h1.722a2.492,2.492,0,1,1,0,4.98H390.56Z" transform="translate(-365.313 -255.335)" fill="#fff"/>
      <path id="Path_353" data-name="Path 353" d="M24.456,61.463H22.88V60.91h3.779v.553H25.075v4.429h-.619Z" transform="translate(-14.065 -35.744)" fill="#fff"/>
      <path id="Path_354" data-name="Path 354" d="M365.894,291.637a1.844,1.844,0,1,0,1.362.607,1.842,1.842,0,0,0-1.362-.607m0-.551a2.582,2.582,0,1,1-2.471,2.582,2.432,2.432,0,0,1,2.471-2.582" transform="translate(-349.853 -266.002)" fill="#fff"/>
      <path id="Path_355" data-name="Path 355" d="M22.88,79.83h3.65v1.085H24.163v.83h2.315v1.089H24.163v.894H26.53v1.085H22.88Z" transform="translate(-14.065 -46.521)" fill="#fff"/>
      <path id="Path_356" data-name="Path 356" d="M36.66,81.806v3.008H35.375V79.83H36.7L38.708,82.7V79.83H40v4.984H38.764Z" transform="translate(-21.183 -46.521)" fill="#fff"/>
      <path id="Path_357" data-name="Path 357" d="M381.736,314.042a1.321,1.321,0,0,0,1.381-1.373,1.291,1.291,0,0,0-1.373-1.369h-.814v2.742Zm-2.092-3.873h2.092a2.5,2.5,0,1,1,0,4.98h-2.1v-4.967Z" transform="translate(-359.093 -276.873)" fill="#fff"/>
      <path id="Path_358" data-name="Path 358" d="M27.248,100.378l-1.265,3.361h-.566l-1.257-3.361v3.361H22.875V98.76h1.782l1.037,2.823,1.051-2.823h1.788v4.98H27.248Z" transform="translate(-14.063 -57.303)" fill="#fff"/>
      <path id="Path_359" data-name="Path 359" d="M371.758,330.061a1.446,1.446,0,1,0,1.351,1.442,1.341,1.341,0,0,0-1.351-1.442m0-1.136a2.582,2.582,0,1,1-2.668,2.582,2.531,2.531,0,0,1,2.668-2.582" transform="translate(-353.083 -287.554)" fill="#fff"/>
      <path id="Path_360" data-name="Path 360" d="M387.156,332.973a1.322,1.322,0,0,0,1.381-1.373,1.291,1.291,0,0,0-1.373-1.369h-.814v2.742Zm-2.092-3.873h2.092a2.5,2.5,0,1,1,0,4.98h-2.1v-4.967Z" transform="translate(-362.18 -287.656)" fill="#fff"/>
      <path id="Path_361" data-name="Path 361" d="M70.27,98.76h3.654v1.08H71.557v.83h2.315v1.089H71.557v.894h2.367v1.085H70.27Z" transform="translate(-41.059 -57.303)" fill="#fff"/>
      <path id="Path_362" data-name="Path 362" d="M414.567,330.2h-1.016v1.118h1.016a.564.564,0,1,0,0-1.118m-.357,2.212h-.659V334.1H412.26v-4.98h2.5a1.606,1.606,0,0,1,1.722,1.657,1.509,1.509,0,0,1-.994,1.493L416.5,334.1h-1.472Z" transform="translate(-377.673 -287.668)" fill="#fff"/>
      <path id="Path_363" data-name="Path 363" d="M97.46,100.731v3.008H96.175V98.76H97.5l2.012,2.866V98.76h1.3v4.98h-1.24Z" transform="translate(-55.815 -57.303)" fill="#fff"/>
      <path id="Path_364" data-name="Path 364" d="M352.685,351.252a2.251,2.251,0,0,0,1.593.658c.43,0,.71-.185.71-.43s-.323-.4-.861-.508c-.822-.164-1.971-.374-1.971-1.554,0-.835.71-1.565,1.988-1.565a3.039,3.039,0,0,1,2.023.693l-.7.917a2.315,2.315,0,0,0-1.4-.516c-.43,0-.59.172-.59.387s.306.353.861.456c.822.172,1.956.43,1.956,1.536,0,1-.74,1.666-2.074,1.666a3.047,3.047,0,0,1-2.215-.772Z" transform="translate(-343.349 -298.338)" fill="#fff"/>
      <path id="Path_365" data-name="Path 365" d="M35.84,117.68h1.285v3.86h2v1.118H35.84Z" transform="translate(-21.447 -68.08)" fill="#fff"/>
      <path id="Path_366" data-name="Path 366" d="M377.218,351.168h1.4l-.7-2.023Zm1.722,1.085h-2.068l-.254.753h-1.4L377.105,348h1.614l1.881,4.98h-1.4Z" transform="translate(-356.575 -298.422)" fill="#fff"/>
      <path id="Path_367" data-name="Path 367" d="M58.14,117.68h1.453l1.227,3.594,1.229-3.594h1.459l-1.881,4.98H60.018Z" transform="translate(-34.149 -68.08)" fill="#fff"/>
      <path id="Path_368" data-name="Path 368" d="M73.41,117.68h3.654v1.08H74.7v.831h2.315v1.093H74.7v.894h2.367v1.08H73.41Z" transform="translate(-42.847 -68.08)" fill="#fff"/>
      <path id="Path_369" data-name="Path 369" d="M417.707,349.1h-1.016v1.118h1.016a.564.564,0,1,0,0-1.118m-.357,2.212h-.659V353H415.4v-5h2.5a1.606,1.606,0,0,1,1.722,1.657,1.509,1.509,0,0,1-.994,1.493l1.016,1.829h-1.472Z" transform="translate(-379.461 -298.417)" fill="#fff"/>
      <path id="Path_370" data-name="Path 370" d="M98.9,120.653,97.01,117.68h1.447l1.085,1.838,1.067-1.838h1.459l-1.887,2.973v2.006H98.9Z" transform="translate(-56.29 -68.08)" fill="#fff"/>
    </g>
  </g>
</svg>
