<svg xmlns="http://www.w3.org/2000/svg" xmlns:xlink="http://www.w3.org/1999/xlink" width="70" height="70" viewBox="0 0 70 70">
  <defs>
    <clipPath id="clip-path">
      <path id="Path_17234" data-name="Path 17234" d="M0,0H48.508V11.591H0Z" fill="#fff"/>
    </clipPath>
  </defs>
  <g id="Group_7770" data-name="Group 7770" transform="translate(-696 -5650)">
    <g id="Group_7645" data-name="Group 7645" transform="translate(-19 1110)">
      <circle id="Ellipse_206" data-name="Ellipse 206" cx="35" cy="35" r="35" transform="translate(715 4540)" fill="#ebffff"/>
    </g>
    <g id="logo-iowa" transform="translate(707 5679)" clip-path="url(#clip-path)">
      <path id="Path_17228" data-name="Path 17228" d="M31.675,13.5a52.593,52.593,0,0,0,5.413-.345,3.959,3.959,0,1,0-7.126.217c.493.064.963.1,1.392.12.077,0,.148,0,.222,0h.1l0,0Z" transform="translate(-22.382 -5.753)" fill="#fff"/>
      <path id="Path_17229" data-name="Path 17229" d="M27.7,0a5.773,5.773,0,0,0-5.8,5.749,5.85,5.85,0,0,0,.2,1.517c.674.135,1.34.253,1.971.337l.115.015A3.961,3.961,0,1,1,31.314,7.4l.115-.01c.628-.066,1.259-.14,1.9-.217a5.774,5.774,0,0,0-4.2-7A5.834,5.834,0,0,0,27.7,0Z" transform="translate(-16.611 0)" fill="#03617a"/>
      <path id="Path_17230" data-name="Path 17230" d="M28.369,31.152a18.881,18.881,0,0,1-1.976-.516q-.1-.031-.2-.071-.7-.028-1.392-.12l-.115-.015c-.631-.084-1.3-.2-1.971-.337a5.789,5.789,0,0,0,3.554,3.942,11.626,11.626,0,0,1,1.739-1.06c1.06-.5,2.04-.853,2.04-1.167s-.894-.485-1.68-.656Z" transform="translate(-17.228 -22.821)" fill="#c6d667"/>
      <path id="Path_17231" data-name="Path 17231" d="M43.647,29.926l-.115.01a53.242,53.242,0,0,1-5.413.345h-.1c.084.023.173.043.268.066.255.059.546.115.871.179,1.246.245,1.879.319,2.9.472,1.1.166,1.414.71-.444,1.8a5.068,5.068,0,0,0-1.407,1.312,5.806,5.806,0,0,0,5.331-4.4q-.946.111-1.892.215Z" transform="translate(-28.831 -22.532)" fill="#c6d667"/>
      <path id="Path_17232" data-name="Path 17232" d="M41.371,32.769c-1.021-.153-1.657-.23-2.9-.472q-.436-.084-.871-.179c-.094-.023-.184-.043-.268-.066-.074,0-.145,0-.222-.005.061.023.128.048.2.071a18.884,18.884,0,0,0,1.976.516c.786.168,1.68.345,1.68.656s-.98.669-2.04,1.167a12.206,12.206,0,0,0-1.739,1.06l.054.023a5.754,5.754,0,0,0,1.989.357c.1,0,.194,0,.291-.008a5.031,5.031,0,0,1,1.407-1.312c1.858-1.093,1.547-1.639.444-1.8l0,0Z" transform="translate(-28.141 -24.303)" fill="#fff"/>
      <path id="Path_17233" data-name="Path 17233" d="M45.513,9.471l-3.8-7.988h-1.6L36.79,8.473l-1.846,3.883H37.03l1.246-2.648H43.5l1.233,2.648h2.15L45.513,9.471ZM40.9,4.115l1.774,3.794H39.118L40.9,4.115ZM0,1.482V12.356H1.986V1.482H0Zm35.421,0H33.386L30.762,8.013l-.6,1.486-.449-1.537L27.864,1.638H25.949l-1.818,6.2L23.644,9.5,22.983,7.85,20.425,1.482H18.39l2.546,6.426L22.7,12.356h1.856l1.43-4.511.924-2.916.932,2.959,1.407,4.468h1.871l1.672-4.223L35.424,1.48l0,0Zm11.708,10.2h-.248v-.166h.674v.166h-.248v.649H47.13Zm.564-.166h.194l.214.345.215-.345h.194v.814h-.179V11.8l-.23.347H48.1l-.227-.345v.529h-.176v-.814Z" transform="translate(0 -1.122)" fill="#03617a"/>
    </g>
  </g>
</svg>
